<svg width="30" height="30" viewBox="0 0 64 64" fill="none" xmlns="http://www.w3.org/2000/svg">
<path d="M2.66663 2.66663H13.3333L20.48 38.3733C20.7238 39.601 21.3917 40.7039 22.3667 41.4888C23.3418 42.2737 24.5618 42.6906 25.8133 42.6666H51.7333C52.9848 42.6906 54.2048 42.2737 55.1798 41.4888C56.1549 40.7039 56.8228 39.601 57.0666 38.3733L61.3333 16H16M26.6666 56C26.6666 57.4727 25.4727 58.6666 24 58.6666C22.5272 58.6666 21.3333 57.4727 21.3333 56C21.3333 54.5272 22.5272 53.3333 24 53.3333C25.4727 53.3333 26.6666 54.5272 26.6666 56ZM56 56C56 57.4727 54.806 58.6666 53.3333 58.6666C51.8605 58.6666 50.6666 57.4727 50.6666 56C50.6666 54.5272 51.8605 53.3333 53.3333 53.3333C54.806 53.3333 56 54.5272 56 56Z" stroke="#1E1E1E" stroke-width="4" stroke-linecap="round" stroke-linejoin="round"/>
</svg>
